<svg width="35" height="29" viewBox="0 0 35 29" fill="none" xmlns="http://www.w3.org/2000/svg">
<path d="M2.1875 4.22653C4.12344 3.41716 6.89937 2.54434 9.59875 2.27309C12.5081 1.97997 14.9756 2.41091 16.4062 3.91809V25.2375C14.3609 24.0781 11.7688 23.9184 9.37781 24.159C6.79656 24.4215 4.19344 25.1675 2.1875 25.9331V4.22653ZM18.5938 3.91809C20.0244 2.41091 22.4919 1.97997 25.4013 2.27309C28.1006 2.54434 30.8766 3.41716 32.8125 4.22653V25.9331C30.8044 25.1675 28.2034 24.4193 25.6222 24.1612C23.2291 23.9184 20.6391 24.0759 18.5938 25.2375V3.91809ZM17.5 1.94059C15.3453 0.0877818 12.2216 -0.187843 9.37781 0.0965319C6.06594 0.431219 2.72344 1.56653 0.640938 2.51372C0.449857 2.60062 0.287821 2.74068 0.174171 2.91717C0.0605209 3.09365 5.8125e-05 3.29912 0 3.50903L0 27.5715C5.06669e-05 27.7545 0.0460187 27.9346 0.133694 28.0952C0.221369 28.2559 0.347948 28.3919 0.501836 28.491C0.655725 28.59 0.832004 28.6489 1.01453 28.6621C1.19705 28.6754 1.37998 28.6426 1.54656 28.5668C3.47594 27.6918 6.58438 26.6397 9.59656 26.3356C12.6788 26.025 15.2622 26.5259 16.6469 28.254C16.7494 28.3818 16.8792 28.4849 17.0269 28.5557C17.1745 28.6266 17.3362 28.6633 17.5 28.6633C17.6638 28.6633 17.8255 28.6266 17.9731 28.5557C18.1208 28.4849 18.2506 28.3818 18.3531 28.254C19.7378 26.5259 22.3213 26.025 25.4013 26.3356C28.4156 26.6397 31.5263 27.6918 33.4534 28.5668C33.62 28.6426 33.803 28.6754 33.9855 28.6621C34.168 28.6489 34.3443 28.59 34.4982 28.491C34.6521 28.3919 34.7786 28.2559 34.8663 28.0952C34.954 27.9346 35 27.7545 35 27.5715V3.50903C34.9999 3.29912 34.9395 3.09365 34.8258 2.91717C34.7122 2.74068 34.5501 2.60062 34.3591 2.51372C32.2766 1.56653 28.9341 0.431219 25.6222 0.0965319C22.7784 -0.190031 19.6547 0.0877818 17.5 1.94059Z" fill="white"/>
</svg>
