<svg width="35" height="35" viewBox="0 0 35 35" fill="none" xmlns="http://www.w3.org/2000/svg">
<g clip-path="url(#clip0_0_14)">
<path d="M2.1875 6.18625C4.12344 5.37687 6.89937 4.50406 9.59875 4.23281C12.5081 3.93969 14.9756 4.37062 16.4062 5.87781V27.1972C14.3609 26.0378 11.7688 25.8781 9.37781 26.1187C6.79656 26.3812 4.19344 27.1272 2.1875 27.8928V6.18625ZM18.5938 5.87781C20.0244 4.37062 22.4919 3.93969 25.4013 4.23281C28.1006 4.50406 30.8766 5.37687 32.8125 6.18625V27.8928C30.8044 27.1272 28.2034 26.3791 25.6222 26.1209C23.2291 25.8781 20.6391 26.0356 18.5938 27.1972V5.87781ZM17.5 3.90031C15.3453 2.0475 12.2216 1.77187 9.37781 2.05625C6.06594 2.39094 2.72344 3.52625 0.640938 4.47344C0.449857 4.56034 0.287821 4.7004 0.174171 4.87688C0.0605209 5.05337 5.8125e-05 5.25883 0 5.46875L0 29.5312C5.06669e-05 29.7143 0.0460187 29.8943 0.133694 30.055C0.221369 30.2156 0.347948 30.3517 0.501836 30.4507C0.655725 30.5497 0.832004 30.6086 1.01453 30.6218C1.19705 30.6351 1.37998 30.6023 1.54656 30.5266C3.47594 29.6516 6.58438 28.5994 9.59656 28.2953C12.6788 27.9847 15.2622 28.4856 16.6469 30.2137C16.7494 30.3415 16.8792 30.4446 17.0269 30.5154C17.1745 30.5863 17.3362 30.6231 17.5 30.6231C17.6638 30.6231 17.8255 30.5863 17.9731 30.5154C18.1208 30.4446 18.2506 30.3415 18.3531 30.2137C19.7378 28.4856 22.3213 27.9847 25.4013 28.2953C28.4156 28.5994 31.5263 29.6516 33.4534 30.5266C33.62 30.6023 33.803 30.6351 33.9855 30.6218C34.168 30.6086 34.3443 30.5497 34.4982 30.4507C34.6521 30.3517 34.7786 30.2156 34.8663 30.055C34.954 29.8943 35 29.7143 35 29.5312V5.46875C34.9999 5.25883 34.9395 5.05337 34.8258 4.87688C34.7122 4.7004 34.5501 4.56034 34.3591 4.47344C32.2766 3.52625 28.9341 2.39094 25.6222 2.05625C22.7784 1.76969 19.6547 2.0475 17.5 3.90031Z" fill="#D9D9D9"/>
</g>
<defs>
<clipPath id="clip0_0_14">
<rect width="35" height="35" fill="white"/>
</clipPath>
</defs>
</svg>
