<svg width="35" height="35" viewBox="0 0 35 35" fill="none" xmlns="http://www.w3.org/2000/svg">
<path fill-rule="evenodd" clip-rule="evenodd" d="M4.375 29.5312V15.3125H6.5625V29.5312C6.5625 29.8213 6.67773 30.0995 6.88285 30.3046C7.08797 30.5098 7.36617 30.625 7.65625 30.625H27.3438C27.6338 30.625 27.912 30.5098 28.1171 30.3046C28.3223 30.0995 28.4375 29.8213 28.4375 29.5312V15.3125H30.625V29.5312C30.625 30.4015 30.2793 31.2361 29.6639 31.8514C29.0486 32.4668 28.214 32.8125 27.3438 32.8125H7.65625C6.78601 32.8125 5.95141 32.4668 5.33606 31.8514C4.7207 31.2361 4.375 30.4015 4.375 29.5312ZM28.4375 5.46875V13.125L24.0625 8.75V5.46875C24.0625 5.17867 24.1777 4.90047 24.3829 4.69535C24.588 4.49023 24.8662 4.375 25.1562 4.375H27.3438C27.6338 4.375 27.912 4.49023 28.1171 4.69535C28.3223 4.90047 28.4375 5.17867 28.4375 5.46875Z" fill="#D9D9D9"/>
<path fill-rule="evenodd" clip-rule="evenodd" d="M15.9535 3.28125C16.3637 2.87116 16.92 2.64078 17.5 2.64078C18.0801 2.64078 18.6364 2.87116 19.0466 3.28125L33.5869 17.8194C33.7923 18.0247 33.9077 18.3033 33.9077 18.5937C33.9077 18.8842 33.7923 19.1627 33.5869 19.3681C33.3815 19.5735 33.103 19.6889 32.8125 19.6889C32.5221 19.6889 32.2435 19.5735 32.0382 19.3681L17.5 4.82781L2.96191 19.3681C2.75654 19.5735 2.47799 19.6889 2.18754 19.6889C1.89709 19.6889 1.61854 19.5735 1.41316 19.3681C1.20779 19.1627 1.09241 18.8842 1.09241 18.5937C1.09241 18.3033 1.20779 18.0247 1.41316 17.8194L15.9535 3.28125Z" fill="#D9D9D9"/>
</svg>
