<svg width="31" height="29" viewBox="0 0 31 29" fill="none" xmlns="http://www.w3.org/2000/svg">
<path fill-rule="evenodd" clip-rule="evenodd" d="M3.28508 3.28508C3.36706 3.2029 3.46445 3.13769 3.57167 3.0932C3.67889 3.04871 3.79383 3.02581 3.90991 3.02581C4.026 3.02581 4.14094 3.04871 4.24816 3.0932C4.35537 3.13769 4.45276 3.2029 4.53474 3.28508L15.1251 13.8754C15.2073 13.9574 15.2725 14.0548 15.317 14.162C15.3614 14.2692 15.3843 14.3842 15.3843 14.5002C15.3843 14.6163 15.3614 14.7313 15.317 14.8385C15.2725 14.9457 15.2073 15.0431 15.1251 15.1251L4.53474 25.7154C4.36903 25.8811 4.14427 25.9742 3.90991 25.9742C3.67556 25.9742 3.4508 25.8811 3.28508 25.7154C3.11937 25.5497 3.02627 25.3249 3.02627 25.0906C3.02627 24.8562 3.11937 24.6315 3.28508 24.4657L13.2523 14.5002L3.28508 4.53474C3.2029 4.45276 3.13769 4.35537 3.0932 4.24816C3.04871 4.14094 3.02581 4.026 3.02581 3.90991C3.02581 3.79383 3.04871 3.67889 3.0932 3.57167C3.13769 3.46445 3.2029 3.36706 3.28508 3.28508Z" fill="white"/>
<path fill-rule="evenodd" clip-rule="evenodd" d="M15.6436 3.28508C15.7256 3.2029 15.823 3.13769 15.9302 3.0932C16.0374 3.04871 16.1523 3.02581 16.2684 3.02581C16.3845 3.02581 16.4995 3.04871 16.6067 3.0932C16.7139 3.13769 16.8113 3.2029 16.8933 3.28508L27.4836 13.8754C27.5658 13.9574 27.631 14.0548 27.6755 14.162C27.72 14.2692 27.7429 14.3842 27.7429 14.5002C27.7429 14.6163 27.72 14.7313 27.6755 14.8385C27.631 14.9457 27.5658 15.0431 27.4836 15.1251L16.8933 25.7154C16.7275 25.8811 16.5028 25.9742 16.2684 25.9742C16.0341 25.9742 15.8093 25.8811 15.6436 25.7154C15.4779 25.5497 15.3848 25.3249 15.3848 25.0906C15.3848 24.8562 15.4779 24.6315 15.6436 24.4657L25.6109 14.5002L15.6436 4.53474C15.5614 4.45276 15.4962 4.35537 15.4517 4.24816C15.4072 4.14094 15.3843 4.026 15.3843 3.90991C15.3843 3.79383 15.4072 3.67889 15.4517 3.57167C15.4962 3.46445 15.5614 3.36706 15.6436 3.28508Z" fill="white"/>
</svg>
